<svg width="20" height="24" viewBox="0 0 20 24" fill="none" xmlns="http://www.w3.org/2000/svg"><path d="M20 18.8889V20H0V18.8889L2.22222 16.6667V10C2.22222 6.55556 4.47778 3.52222 7.77778 2.54444V2.22222C7.77778 1.63285 8.0119 1.06762 8.42865 0.650874C8.8454 0.234126 9.41063 0 10 0C10.5894 0 11.1546 0.234126 11.5713 0.650874C11.9881 1.06762 12.2222 1.63285 12.2222 2.22222V2.54444C15.5222 3.52222 17.7778 6.55556 17.7778 10V16.6667L20 18.8889ZM12.2222 21.1111C12.2222 21.7005 11.9881 22.2657 11.5713 22.6825C11.1546 23.0992 10.5894 23.3333 10 23.3333C9.41063 23.3333 8.8454 23.0992 8.42865 22.6825C8.0119 22.2657 7.77778 21.7005 7.77778 21.1111" fill="currentColor"/></svg>