<svg width="43" height="39" viewBox="0 0 43 39" fill="none" xmlns="http://www.w3.org/2000/svg">
<path d="M15.9714 0C20.2073 0 24.2697 1.52617 27.2649 4.24277C30.2602 6.95937 31.9429 10.6439 31.9429 14.4857C31.9429 18.0737 30.4931 21.372 28.1097 23.9126L28.7731 24.5143H30.7143L43 35.6571L39.3143 39L27.0286 27.8571V26.0966L26.3651 25.4949C23.4666 27.7378 19.7816 28.9704 15.9714 28.9714C11.7355 28.9714 7.67315 27.4453 4.67792 24.7287C1.6827 22.0121 0 18.3276 0 14.4857C0 10.6439 1.6827 6.95937 4.67792 4.24277C7.67315 1.52617 11.7355 0 15.9714 0ZM15.9714 4.45714C9.82857 4.45714 4.91429 8.91429 4.91429 14.4857C4.91429 20.0571 9.82857 24.5143 15.9714 24.5143C22.1143 24.5143 27.0286 20.0571 27.0286 14.4857C27.0286 8.91429 22.1143 4.45714 15.9714 4.45714Z" fill="#696BE2"/>
</svg>
